<svg xmlns="http://www.w3.org/2000/svg" viewBox="0 0 364.69 364.69"><defs><style>.cls-1,.cls-2,.cls-3{fill:#fff;}.cls-2{opacity:0.61;}.cls-3{font-size:39px;font-family:MyriadPro-Regular, Myriad Pro;}.cls-4{fill:none;stroke:#fff;stroke-miterlimit:10;stroke-width:6px;}</style></defs><g id="Layer_2" data-name="Layer 2"><g id="Layer_1-2" data-name="Layer 1"><path class="cls-1" d="M246.85,186a64.58,64.58,0,0,1-129,0h30.2a34.44,34.44,0,0,0,68.6,0Z"/><path class="cls-1" d="M246.85,179.71h-30.2a34.44,34.44,0,0,0-68.6,0h-30.2a64.58,64.58,0,0,1,129,0Z"/><path class="cls-2" d="M182.35,279.16a96.3,96.3,0,1,1,96.3-96.3A96.41,96.41,0,0,1,182.35,279.16Zm0-181.6a85.3,85.3,0,1,0,85.3,85.3A85.4,85.4,0,0,0,182.35,97.56Z"/><path class="cls-1" d="M182.34,158.29a24.57,24.57,0,1,0,24.57,24.57A24.57,24.57,0,0,0,182.34,158.29Zm-1.9,20.52V168.28h3.8v10.53h3.37L182.34,186l-5.26-7.19Zm16.27,13.87H168V181.77h4.77v6.63h19.41v-6.63h4.55Z"/><text class="cls-3" transform="matrix(0.54, -0.84, 0.84, 0.54, 87.2, 136.46)">G</text><text class="cls-3" transform="matrix(0.69, -0.72, 0.72, 0.69, 100.21, 116.38)">E</text><text class="cls-3" transform="translate(113.15 102.9) rotate(-35.72)">T</text><text class="cls-3" transform="translate(128.38 92.31) rotate(-28.62)"> </text><text class="cls-3" transform="translate(133.43 89.07) rotate(-22.44)">T</text><text class="cls-3" transform="translate(150.07 81.73) rotate(-10.92)">H</text><text class="cls-3" transform="translate(173.82 77.34) rotate(0.62)">E</text><text class="cls-3" transform="translate(192.18 77.82) rotate(7.68)"> </text><text class="cls-3" transform="translate(199.59 78.12) rotate(16.26)">G</text><text class="cls-3" transform="translate(222.51 84.73) rotate(28.81)">A</text><text class="cls-3" transform="translate(242.36 94.88) rotate(42.93)">M</text><text class="cls-3" transform="matrix(0.56, 0.83, -0.83, 0.56, 263.88, 115.63)">E</text><text class="cls-3" transform="translate(273.92 131.01) rotate(63.21)">!</text><text class="cls-3" transform="translate(277.74 138.56) rotate(67.56)"> </text><text class="cls-3" transform="translate(280.73 145.75) rotate(71.79)"> </text><text class="cls-3" transform="translate(283.18 153.15) rotate(76.04)"> </text><text class="cls-3" transform="translate(285.08 160.69) rotate(80.32)"> </text><text class="cls-3" transform="translate(286.4 168.34) rotate(84.59)"> </text><text class="cls-3" transform="translate(287.15 176.09) rotate(88.87)"> </text><text class="cls-3" transform="translate(287.33 183.87) rotate(93.14)"> </text><text class="cls-3" transform="matrix(-0.13, 0.99, -0.99, -0.13, 286.92, 191.64)"> </text><text class="cls-3" transform="translate(285.93 199.38) rotate(101.64)"> </text><text class="cls-3" transform="translate(284.38 206.98) rotate(105.86)"> </text><text class="cls-3" transform="translate(282.27 214.48) rotate(110.09)"> </text><text class="cls-3" transform="translate(279.61 221.8) rotate(114.31)"> </text><text class="cls-3" transform="translate(277.21 228.82) rotate(122.89)">G</text><text class="cls-3" transform="matrix(-0.7, 0.72, -0.72, -0.7, 264.08, 248.81)">E</text><text class="cls-3" transform="translate(251.07 262.21) rotate(144.63)">T</text><text class="cls-3" transform="matrix(-0.88, 0.47, -0.47, -0.88, 235.76, 272.71)"> </text><text class="cls-3" transform="matrix(-0.93, 0.38, -0.38, -0.93, 230.69, 275.92)">T</text><text class="cls-3" transform="translate(214 283.16) rotate(169.44)">H</text><text class="cls-3" transform="translate(190.24 287.4) rotate(-179.03)">E</text><text class="cls-3" transform="matrix(-0.99, -0.14, 0.14, -0.99, 171.87, 286.8)"> </text><text class="cls-3" transform="translate(164.49 286.46) rotate(-163.39)">G</text><text class="cls-3" transform="translate(141.6 279.72) rotate(-150.85)">A</text><text class="cls-3" transform="matrix(-0.73, -0.69, 0.69, -0.73, 121.81, 269.44)">M</text><text class="cls-3" transform="matrix(-0.55, -0.83, 0.83, -0.55, 100.41, 248.56)">E</text><text class="cls-3" transform="matrix(-0.45, -0.9, 0.9, -0.45, 90.47, 233.13)">!</text><path class="cls-4" d="M73.7,221.91a116,116,0,0,1-.63-76.29"/><path class="cls-4" d="M293.35,221.91a116,116,0,0,0,.63-76.29"/><path class="cls-1" d="M203,252.14a71.5,71.5,0,0,1-41.32,0L160.52,256a75.55,75.55,0,0,0,43.61,0ZM182.34,109.5a71.37,71.37,0,0,1,20.62,3l1.12-3.88a75.61,75.61,0,0,0-43.56,0l1.16,3.87A70.93,70.93,0,0,1,182.34,109.5Z"/></g></g></svg>