<svg xmlns="http://www.w3.org/2000/svg" viewBox="0 0 275.03 275.02"><defs><style>.cls-1,.cls-2,.cls-3{fill:#fff;}.cls-2{opacity:0.61;}.cls-3{font-size:39px;font-family:MyriadPro-Regular, Myriad Pro;}.cls-4{fill:none;stroke:#fff;stroke-miterlimit:10;stroke-width:6px;}</style></defs><g id="Layer_2" data-name="Layer 2"><g id="Layer_1-2" data-name="Layer 1"><path class="cls-1" d="M202,141.17a64.58,64.58,0,0,1-129,0h30.2a34.44,34.44,0,0,0,68.6,0Z"/><path class="cls-1" d="M202,134.88h-30.2a34.44,34.44,0,0,0-68.6,0H73a64.58,64.58,0,0,1,129,0Z"/><path class="cls-2" d="M137.52,234.33a96.3,96.3,0,1,1,96.3-96.3A96.41,96.41,0,0,1,137.52,234.33Zm0-181.6a85.3,85.3,0,1,0,85.3,85.3A85.39,85.39,0,0,0,137.52,52.73Z"/><path class="cls-1" d="M137.52,113.46A24.57,24.57,0,1,0,162.08,138,24.57,24.57,0,0,0,137.52,113.46Zm-8.35,38.32v-27.5L153,138Z"/><text class="cls-3" transform="matrix(0.86, -0.51, 0.51, 0.86, 69.73, 55.8)">W</text><text class="cls-3" transform="translate(94.95 40.88) rotate(-17.27)">A</text><text class="cls-3" transform="translate(113.82 34.86) rotate(-7.65)">T</text><text class="cls-3" transform="translate(130.86 32.24) rotate(2.49)">C</text><text class="cls-3" transform="translate(152.19 32.87) rotate(14.85)">H</text><text class="cls-3" transform="matrix(0.92, 0.4, -0.4, 0.92, 175.62, 39.68)"> </text><text class="cls-3" transform="translate(182.77 42.78) rotate(27.84)"> </text><text class="cls-3" transform="translate(189.65 46.39) rotate(32.08)"> </text><text class="cls-3" transform="translate(196.26 50.51) rotate(36.33)"> </text><text class="cls-3" transform="translate(202.54 55.11) rotate(40.56)"> </text><text class="cls-3" transform="translate(208.47 60.16) rotate(44.79)"> </text><text class="cls-3" transform="translate(214.01 65.64) rotate(49.01)"> </text><text class="cls-3" transform="matrix(0.6, 0.8, -0.8, 0.6, 219.13, 71.5)"> </text><text class="cls-3" transform="translate(223.81 77.73) rotate(57.49)"> </text><text class="cls-3" transform="matrix(0.47, 0.88, -0.88, 0.47, 227.99, 84.26)"> </text><text class="cls-3" transform="matrix(0.41, 0.91, -0.91, 0.41, 231.7, 91.12)"> </text><text class="cls-3" transform="translate(234.88 98.22) rotate(70.28)"> </text><text class="cls-3" transform="translate(237.52 105.54) rotate(74.56)"> </text><text class="cls-3" transform="matrix(0.19, 0.98, -0.98, 0.19, 239.62, 113.04)"> </text><text class="cls-3" transform="translate(241.19 118.81) rotate(85.12)">T</text><text class="cls-3" transform="translate(243.16 136.88) rotate(96.5)">H</text><text class="cls-3" transform="matrix(-0.31, 0.95, -0.95, -0.31, 240.25, 160.87)">E</text><text class="cls-3" transform="matrix(-0.42, 0.91, -0.91, -0.42, 234.29, 178.24)"> </text><text class="cls-3" transform="translate(231 185.29) rotate(119.38)"> </text><text class="cls-3" transform="translate(227.2 192.09) rotate(123.63)"> </text><text class="cls-3" transform="translate(222.91 198.57) rotate(127.86)"> </text><text class="cls-3" transform="translate(218.14 204.73) rotate(132.1)"> </text><text class="cls-3" transform="translate(212.93 210.53) rotate(136.32)"> </text><text class="cls-3" transform="translate(207.31 215.92) rotate(140.55)"> </text><text class="cls-3" transform="translate(201.32 220.87) rotate(144.78)"> </text><text class="cls-3" transform="translate(194.98 225.37) rotate(149.02)"> </text><text class="cls-3" transform="translate(188.31 229.4) rotate(153.28)"> </text><text class="cls-3" transform="translate(181.35 232.92) rotate(157.56)"> </text><text class="cls-3" transform="translate(174.17 235.9) rotate(161.84)"> </text><text class="cls-3" transform="translate(166.8 238.34) rotate(166.11)"> </text><text class="cls-3" transform="translate(159.23 240.23) rotate(170.39)"> </text><text class="cls-3" transform="matrix(-1, 0.09, -0.09, -1, 151.57, 241.54)"> </text><text class="cls-3" transform="translate(143.83 242.29) rotate(178.83)"> </text><text class="cls-3" transform="matrix(-1, -0.05, 0.05, -1, 136.04, 242.47)"> </text><text class="cls-3" transform="translate(128.26 242.08) rotate(-172.76)"> </text><text class="cls-3" transform="translate(120.55 241.12) rotate(-168.5)"> </text><text class="cls-3" transform="translate(114.6 240.35) rotate(-162.17)">T</text><text class="cls-3" transform="translate(97.17 234.92) rotate(-151.74)">R</text><text class="cls-3" transform="matrix(-0.77, -0.64, 0.64, -0.77, 79.48, 225.69)">A</text><text class="cls-3" transform="matrix(-0.66, -0.75, 0.75, -0.66, 62.22, 210.67)">I</text><text class="cls-3" transform="matrix(-0.57, -0.82, 0.82, -0.57, 56.3, 204.52)">L</text><text class="cls-3" transform="translate(46.35 190.29) rotate(-114.88)">E</text><text class="cls-3" transform="matrix(-0.25, -0.97, 0.97, -0.25, 38.6, 174)">R</text><text class="cls-3" transform="translate(33.9 154.46) rotate(-96.77)">!</text><text class="cls-3" transform="translate(32.9 146.04) rotate(-92.36)"> </text><path class="cls-4" d="M22.14,134.88A115.12,115.12,0,0,1,59.77,52.73"/><path class="cls-4" d="M233.23,202.57a115.3,115.3,0,0,1-95.71,50.88q-5.84,0-11.51-.56"/><path class="cls-4" d="M191.46,36a115.69,115.69,0,0,1,56.43,68.2"/><path class="cls-1" d="M158.19,207.31a71.5,71.5,0,0,1-41.32,0l-1.16,3.87a75.55,75.55,0,0,0,43.61,0ZM137.53,64.67a71.37,71.37,0,0,1,20.62,3l1.12-3.88a75.61,75.61,0,0,0-43.56,0l1.16,3.87A70.93,70.93,0,0,1,137.53,64.67Z"/></g></g></svg>