<svg xmlns="http://www.w3.org/2000/svg" viewBox="0 0 759.74 571.13"><defs><style>.cls-1{fill:#e6e6e7;}.cls-2{opacity:0.61;}.cls-3{fill:gray;}.cls-10,.cls-11,.cls-12,.cls-13,.cls-14,.cls-15,.cls-16,.cls-17,.cls-3,.cls-4,.cls-5,.cls-6,.cls-7,.cls-8,.cls-9{opacity:0.99;}.cls-4{fill:#b3b3b3;}.cls-5{fill:#999;}.cls-15,.cls-16,.cls-6{fill:none;}.cls-7{fill:#efefef;}.cls-8{fill:#dddbdb;}.cls-9{fill:#f2f2f2;}.cls-10{fill:#ccc;}.cls-11{fill:#fff;}.cls-12{fill:#e6e6e6;}.cls-13{fill:#ddd;}.cls-14{fill:#f7f7f7;}.cls-15{stroke:#b3b3b3;}.cls-15,.cls-16{stroke-miterlimit:10;}.cls-16{stroke:#ccc;stroke-linecap:round;}.cls-17{fill:#d8d8d8;}</style></defs><g id="Layer_2" data-name="Layer 2"><g id="Layer_1-2" data-name="Layer 1"><rect class="cls-1" width="759.74" height="571.13"/><g class="cls-2"><path class="cls-3" d="M152.69,152.94c3-.87,1.23-4.95,1.23-4.95l-4.81-12.3.58-21.35-.58-4.27-5.64,2.15-.93,23.38,6,17.34Z"/><path class="cls-4" d="M118.16,126.32v11.5l-14.38,28.55a5.45,5.45,0,0,0,1.72,6.89l18.25,12.89a9.29,9.29,0,0,0,8.76,1.07l24.67-9.69a5.67,5.67,0,0,0,3.1-7.59l-13.85-31,.41-28.86"/><path class="cls-5" d="M157.17,177.54l-24.66,9.68a9.48,9.48,0,0,1-3.17.64l4-45.94V117.74l13.54-7.66-.41,28.85,13.85,31A5.67,5.67,0,0,1,157.17,177.54Z"/><polyline class="cls-6" points="131.03 129.54 131.03 142.58 127.15 186.13"/><path class="cls-7" d="M150.73,102.07l-13.46-5L123.8,99.92a8.72,8.72,0,0,0-6.92,8.53v16.93l2.64,1.94.28,12.07,6.65,3.19-.14-11.79,4.72-1.25,6-6.71,3.88-12Z"/><polygon class="cls-3" points="126.45 142.58 127.84 141.05 127.84 130.38 126.31 130.79 126.45 142.58"/><path class="cls-4" d="M150.73,102.07l-13.53,3.15A8,8,0,0,0,131,113v16.56s6.38-.56,7.21-2.64l.14-5.55,3.75-5.54,8.6-1.67Z"/><line class="cls-6" x1="138.38" y1="121.35" x2="138.38" y2="107.21"/><polyline class="cls-6" points="146.43 138.93 131.03 142.58 128.85 141.95"/><path class="cls-5" d="M119.52,112.22l1.52-1.34s5.21-1,6.11,6.66S124.3,125,124.3,125l-2.22-.35"/><path class="cls-8" d="M115.7,114.36l3.17-2.07s3.7-1.11,4.72,5.37-1.21,7-1.21,7l-5.88-.47"/><ellipse class="cls-7" cx="116.1" cy="119.28" rx="2.5" ry="4.94" transform="translate(-9.25 9.76) rotate(-4.63)"/><ellipse class="cls-5" cx="115.7" cy="119.52" rx="0.73" ry="1.87" transform="matrix(1, -0.08, 0.08, 1, -9.27, 9.73)"/><path class="cls-9" d="M81.71,48.09c0,.6,0,1.19,0,1.79A40.86,40.86,0,0,1,.44,54,37.86,37.86,0,0,1,0,49.88c0-.6,0-1.19,0-1.79a40.86,40.86,0,1,1,81.71,0Z"/><path class="cls-3" d="M81.71,48.09c0,.6,0,1.19,0,1.79A40.49,40.49,0,0,1,81.27,54c-9.58,6.78-24.13,11.12-40.42,11.12S10,60.81.44,54A37.86,37.86,0,0,1,0,49.88c0-.6,0-1.19,0-1.79a40.86,40.86,0,1,1,81.71,0Z"/><path class="cls-10" d="M81.71,48.09c0,.6,0,1.19,0,1.79-9.58,6.94-24.3,11.39-40.83,11.39S9.6,56.82,0,49.88c0-.6,0-1.19,0-1.79a40.86,40.86,0,1,1,81.71,0Z"/><circle class="cls-3" cx="40.86" cy="61.99" r="11.37"/><circle class="cls-9" cx="40.86" cy="61.99" r="8.04"/><circle class="cls-6" cx="40.86" cy="61.99" r="8.04"/><circle class="cls-11" cx="40.86" cy="61.99" r="5.69"/><path class="cls-9" d="M655.68,47.63c0,.6,0,1.19,0,1.78a37.81,37.81,0,0,1-.4,4.16,40.85,40.85,0,0,1-80.84,0,40.41,40.41,0,0,1-.4-4.16c0-.59,0-1.18,0-1.78a40.86,40.86,0,1,1,81.71,0Z"/><path class="cls-3" d="M655.68,47.63c0,.6,0,1.19,0,1.78a37.81,37.81,0,0,1-.4,4.16c-9.59,6.78-24.13,11.11-40.42,11.11S584,60.35,574.4,53.57a40.41,40.41,0,0,1-.4-4.16c0-.59,0-1.18,0-1.78a40.86,40.86,0,1,1,81.71,0Z"/><path class="cls-9" d="M655.68,47.63c0,.6,0,1.19,0,1.78-9.57,7-24.3,11.4-40.82,11.4S583.57,56.36,574,49.41c0-.59,0-1.18,0-1.78a40.86,40.86,0,1,1,81.71,0Z"/><path class="cls-9" d="M655.68,47.63c0,.6,0,1.19,0,1.78-9.57,7-24.3,11.4-40.82,11.4S583.57,56.36,574,49.41c0-.59,0-1.18,0-1.78a40.86,40.86,0,1,1,81.71,0Z"/><circle class="cls-3" cx="614.82" cy="61.53" r="11.37"/><circle class="cls-9" cx="614.82" cy="61.53" r="8.04"/><circle class="cls-6" cx="614.82" cy="61.53" r="8.04"/><circle class="cls-11" cx="614.82" cy="61.53" r="5.69"/><path class="cls-9" d="M464.36,50.59c0,.6,0,1.19,0,1.78a40.86,40.86,0,0,1-81.64,0c0-.59,0-1.18,0-1.78a40.86,40.86,0,0,1,81.72,0Z"/><path class="cls-3" d="M464.36,50.59c0,.6,0,1.19,0,1.78a40.49,40.49,0,0,1-.4,4.15c-9.59,6.79-24.13,11.12-40.42,11.12s-30.84-4.33-40.42-11.12a40.49,40.49,0,0,1-.4-4.15c0-.59,0-1.18,0-1.78a40.86,40.86,0,0,1,81.72,0Z"/><path class="cls-3" d="M464.36,50.59c0,.6,0,1.19,0,1.78-9.58,7-24.3,11.39-40.82,11.39s-31.25-4.44-40.82-11.39c0-.59,0-1.18,0-1.78a40.86,40.86,0,0,1,81.72,0Z"/><circle class="cls-3" cx="423.5" cy="64.48" r="11.37"/><circle class="cls-9" cx="423.5" cy="64.48" r="8.04"/><circle class="cls-6" cx="423.5" cy="64.48" r="8.04"/><circle class="cls-11" cx="423.5" cy="64.48" r="5.69"/><path class="cls-9" d="M273,50.59c0,.6,0,1.19,0,1.78a40.86,40.86,0,0,1-81.24,4.15,37.86,37.86,0,0,1-.4-4.15c0-.59,0-1.18,0-1.78a40.86,40.86,0,1,1,81.72,0Z"/><path class="cls-3" d="M273,50.59c0,.6,0,1.19,0,1.78a40.49,40.49,0,0,1-.4,4.15c-9.59,6.79-24.14,11.12-40.43,11.12s-30.83-4.33-40.41-11.12a37.86,37.86,0,0,1-.4-4.15c0-.59,0-1.18,0-1.78a40.86,40.86,0,1,1,81.72,0Z"/><path class="cls-5" d="M273,50.59c0,.6,0,1.19,0,1.78-9.58,7-24.3,11.39-40.83,11.39s-31.24-4.44-40.81-11.39c0-.59,0-1.18,0-1.78a40.86,40.86,0,1,1,81.72,0Z"/><circle class="cls-3" cx="232.18" cy="64.48" r="11.37"/><circle class="cls-9" cx="232.18" cy="64.48" r="8.04"/><circle class="cls-6" cx="232.18" cy="64.48" r="8.04"/><circle class="cls-11" cx="232.18" cy="64.48" r="5.69"/><path class="cls-3" d="M203.17,20.6A49.65,49.65,0,0,0,220.47,42a2.08,2.08,0,0,1,.54,2.89l-3.8,5.63a2.09,2.09,0,0,1-2.72.68c-5.61-3-23.3-12.84-21.34-17.93,0,0-.37-4,8.39-13A1,1,0,0,1,203.17,20.6Z"/><path class="cls-3" d="M260,20.6A49.62,49.62,0,0,1,242.73,42a2.09,2.09,0,0,0-.54,2.89l3.8,5.63a2.09,2.09,0,0,0,2.72.68c5.61-3,23.3-12.84,21.35-17.93,0,0,.37-4-8.4-13A1,1,0,0,0,260,20.6Z"/><path class="cls-10" d="M453.83,23.25v35a74.44,74.44,0,0,1-19,4.92V15.68a32.26,32.26,0,0,0-22.74,0v47.5a74.14,74.14,0,0,1-19-4.92v-35a40.74,40.74,0,0,1,60.66,0Z"/><path class="cls-10" d="M746.45,139l-.21,3.51,5.37-.4a1.85,1.85,0,0,0,1.67-2.23l-.07-.32a2,2,0,0,0-2.46-1.56Z"/><path class="cls-10" d="M745.46,146.35l-.38-2.39,4.22-.49a1.1,1.1,0,0,1,1.23,1.1v.72a1.42,1.42,0,0,1-1.57,1.42Z"/><path class="cls-4" d="M731,145.47l15.21-3s2.8-2.46-.79-4.12l-10.61,1.55Z"/><path class="cls-10" d="M753.38,135.52l4.74-.53a1.66,1.66,0,0,0,1.58-2l-.22-.93a1.43,1.43,0,0,0-1.6-1.08l-5.47.78Z"/><path class="cls-4" d="M737.68,139.53,753.32,136s1.5-2.93-1.22-4.63l-10.61,1.77Z"/><path class="cls-4" d="M729.56,150.43l15.08-3s2.9-2.69-.66-4.14l-10.61,1.54Z"/><path class="cls-10" d="M755.2,121.45,712.45,169.5a1.25,1.25,0,0,1-.61.37l-35.26,9a5.83,5.83,0,0,1-5.48-1.43l-2.45-2.34a6.59,6.59,0,0,1-2-4.21l-3-38.4a5.68,5.68,0,0,1,4.73-6l77.43-12.84a1.19,1.19,0,0,1,.9.2l8.28,5.79a1.19,1.19,0,0,1,.44.56A1.24,1.24,0,0,1,755.2,121.45Z"/><path class="cls-4" d="M755.2,121.45,712.45,169.5a1.25,1.25,0,0,1-.61.37l-35.26,9a5.79,5.79,0,0,1-2.65.06l-1.22-40a3.47,3.47,0,0,1,2.81-3.45L755,120.11a.44.44,0,0,1,.38.08A1.24,1.24,0,0,1,755.2,121.45Z"/><path class="cls-3" d="M677.23,141.77l.87,23.35a3.08,3.08,0,0,0,3.6,2.93l31.16-6.51a6.15,6.15,0,0,0,3.46-1.88l26.32-31a1.7,1.7,0,0,0-1.5-2.83L680.36,138A3.68,3.68,0,0,0,677.23,141.77Z"/><path class="cls-5" d="M235.84,236.94c1.29.73,11.28-13.42,14.13-28,.31-1.61.6-3.13.27-3.26C248.67,205.12,234,235.93,235.84,236.94Z"/><path class="cls-5" d="M237.88,235.45c1.12-5.24,10.76-8.83,19-8.15,1.1.09,8.47.7,8.83,3.12.44,2.92-9.84,4.77-24.31,9.65a3.06,3.06,0,0,1-2.48,0C237.63,239.26,237.59,236.78,237.88,235.45Z"/><path class="cls-4" d="M239.37,237.35c8.81-6.62,16-11.83,20.92-15.35,8.17-5.84,14.88-10.46,14-12.49-.27-.61-1.16-.87-2.58-1-3.82-.22-10.59.9-22.55,11.82a106.54,106.54,0,0,0-12.9,14.13Z"/><path class="cls-10" d="M238.69,233.82c5.12-5.35,12-12.9,19.7-22.41,5.86-7.25,10.68-13.22,9.91-14-1-1-11.22,7.1-19.56,15.89-6.7,7.07-16,18.55-14,20.78C235.42,234.85,237.24,234.36,238.69,233.82Z"/><path class="cls-5" d="M234.89,236c6.54-12.9,8.07-23.63,8.29-30.83.16-5.52-.26-14.69-2.18-14.94s-4.62,8.8-5.43,11.54c-4.1,13.89-3.39,26.71-3,33,0,.83.11,1.5.14,1.9Z"/><path class="cls-4" d="M227.56,228.39c-1.56-.67,0-4.14-1.5-9.65-1.77-6.6-6-9.06-4.89-10.86,1-1.63,5.43-1.28,8.42.54,4.64,2.81,6.3,9.45,4.35,14.26C232.56,226.09,229.17,229.08,227.56,228.39Z"/><path class="cls-12" d="M231.22,233.28c-2-.15-3.31-11.22-.95-20.79.4-1.63,1.42-5.74,2.58-5.7,1.4.05,2.57,6,2.58,11C235.46,225.15,233,233.41,231.22,233.28Z"/><path class="cls-12" d="M236.66,232.73a41.54,41.54,0,0,0,8.28-13.17c2-5.16,3.45-12.15,2-12.77s-5.27,5.35-5.84,6.25a43.72,43.72,0,0,0-6.52,18.61Z"/><path class="cls-12" d="M241.05,237.54c3,.16,4.35-2,8-3.94,5-2.59,8.36-1.52,8.55-2.71.29-1.71-6.19-6-12.08-4.35-5.17,1.43-9,7.16-7.88,9.51C238.33,237.4,240.63,237.52,241.05,237.54Z"/><path class="cls-5" d="M68.69,238.38l6.11-10.47a.84.84,0,0,0-.79-1.26c-2.82.18-8.79,1-11.64,4.86C62.37,231.51,58.66,238.82,68.69,238.38Z"/><path class="cls-13" d="M29.14,240.19a10.7,10.7,0,0,1-10.69,10.69c-5.9,0-9.59-3.37-9.59-9.27s3.69-12.1,9.59-12.1A10.69,10.69,0,0,1,29.14,240.19Z"/><circle class="cls-10" cx="13.93" cy="258.18" r="8.29"/><path class="cls-9" d="M35.79,249c0,6.93-3.35,11.29-10.2,12.32C15.83,262.81,10.71,256,10.71,249a12.54,12.54,0,1,1,25.08,0Z"/><path class="cls-4" d="M61.49,231.51s17.18-7.34,18.86-13.35a.94.94,0,0,0-1-1.15c-2.59.24-9.6,2.07-20.67,13.74Z"/><path class="cls-10" d="M53.07,225.51s7-16.08,7-23.76a.84.84,0,0,0-1-.81c-2.78.7-10.67,4-13.61,19.45l.83,7.09Z"/><path class="cls-12" d="M43.17,219S35,202.52,62.68,193a.62.62,0,0,1,.74.87C60.82,198.82,51.28,216.18,43.17,219Z"/><path class="cls-10" d="M53.07,227.67S56.13,204.56,81.49,199a1.35,1.35,0,0,1,1.65,1.35c-.17,4.69-2.8,18.41-26.23,30.39Z"/><circle class="cls-4" cx="15.83" cy="274.87" r="9.76"/><path class="cls-4" d="M59.67,263.58c0,6-5.82,10.31-11.78,10.31S37.1,270,37.1,264.07a10.79,10.79,0,0,1,10.79-10.79C53.85,253.28,59.67,257.62,59.67,263.58Z"/><circle class="cls-10" cx="28.26" cy="221.98" r="12.43"/><path class="cls-10" d="M77.61,249c0,7.83-8.56,15-18,13.6-6.91-1.06-9.07-5.77-9.07-13.6s5.66-14.17,12.65-14.17S77.61,241.19,77.61,249Z"/><path class="cls-4" d="M42.6,274.87c0,5.39-6.33,8.61-11.72,8.61s-7.79-3.22-7.79-8.61a9.76,9.76,0,1,1,19.51,0Z"/><path class="cls-10" d="M32.84,269.09a8.72,8.72,0,0,1-17.44,0,8.72,8.72,0,1,1,17.44,0Z"/><path class="cls-9" d="M50.73,229c0,7.35-5.09,16.57-12.43,16.57s-15.21-6.39-15.21-13.73,7-16.14,14.33-16.14A13.3,13.3,0,0,1,50.73,229Z"/><path class="cls-12" d="M52.16,255.94C55.31,262.7,47.62,273,40.7,273c-4.91,0-15.11-2.4-15.11-13.95,0-6.93,7.63-12.54,14.56-12.54S49.24,249.66,52.16,255.94Z"/><path class="cls-12" d="M65.23,238.34c0,6.92-8.39,16.57-15.32,16.57s-15.32-4.63-15.32-11.56,8.39-19,15.32-19S65.23,231.41,65.23,238.34Z"/><path class="cls-14" d="M455.45,215.63a41.37,41.37,0,0,0,5.66.64l3.73-7.18s-28.4-3.52-32.2-15.81c0,0-5.28,2.05-4.4,6.44.34,1.67,2.83,4.39,6.69,7.14l-.68,7.36a77.76,77.76,0,0,0-14.46,7.34c-1.61,1.05-3.26,2.22-4.87,3.49-9.08,7.17-34,9.66-34,9.66v6.15s2.2,5.42,11.87,6.58l1.44-.45c-5.68,2.74-10.23,4.7-10.23,4.7l.88,5.13S395.42,264,408.06,259a63.51,63.51,0,0,1-17,8.1v5.26s15.21,9.7,33.57-4.8a56.09,56.09,0,0,1-13.22,12.57l1.46,3.95s21.23,10.68,36.31-18.59c6.11-11.88,7.82-21,7.69-27.61-.19-9.72-4.32-14.12-4.32-14.12S450.2,217.6,455.45,215.63Z"/><path class="cls-5" d="M449.18,265.46c-15.08,29.27-36.31,18.59-36.31,18.59l-1.46-3.95a56.09,56.09,0,0,0,13.22-12.57c-18.36,14.5-33.57,4.8-33.57,4.8v-5.26a63.51,63.51,0,0,0,17-8.1c-12.64,5.06-23.15-2.15-23.15-2.15l-.88-5.13s4.55-2,10.23-4.7l-1.44.45c-9.67-1.16-11.87-6.58-11.87-6.58v-6.15s24.89-2.49,34-9.66c1.61-1.27,3.26-2.44,4.87-3.49.45,1.91-.73,5,.69,5.83,1,.58,2.18-.53,3.07.14,1.19.9-.27,3.29.88,4.54,1.28,1.4,3.93-.57,5.86.88,1.72,1.3.8,3.72,2.2,4.4,1.95.94,4.71-3.35,6.88-2.49s1,5.13,3.07,6,4-2.91,7.91-2.49c1.8.19,2.2,1.07,3.81.88a4.51,4.51,0,0,0,2.71-1.4C457,244.47,455.29,253.58,449.18,265.46Z"/><path class="cls-10" d="M457.22,237.48a4.87,4.87,0,0,1-3.06,1.77c-1.61.19-2-.69-3.81-.88-3.92-.42-5.87,3.33-7.91,2.49s-1-5.2-3.07-6-4.93,3.43-6.88,2.49c-1.4-.68-.48-3.1-2.2-4.4-1.93-1.45-4.58.52-5.86-.88-1.15-1.25.31-3.64-.88-4.54-.89-.67-2.09.44-3.07-.14-1.24-.73-.49-3.17-.59-5.06h0c.1,0,.19-.12.29-.18.36-.24.73-.47,1.1-.7a1.71,1.71,0,0,0,.71,1.46c1,.59,2.18-.52,3.08.15,1.18.89-.28,3.28.87,4.54s3.93-.57,5.86.88c1.72,1.3.8,3.72,2.2,4.39,2,.95,4.71-3.34,6.88-2.49s1,5.14,3.07,6,4-2.91,7.91-2.49c1.8.19,2.21,1.06,3.81.88a4,4,0,0,0,1.26-.36C457.06,235.37,457.17,236.39,457.22,237.48Z"/><path class="cls-15" d="M420.3,228.73a53.64,53.64,0,0,0-4.92,5.37c-5,6.29-31.18,17.57-31.18,17.57l.88,5.12s10.5,7.21,23.13,2.17"/><path class="cls-15" d="M426.56,235.81c-2.86,5.29-7.4,12.84-12.5,18.2-8.63,9.08-22.84,13-22.84,13v5.27s15.23,9.7,33.61-4.82"/><path class="cls-15" d="M438.16,240.88c-3.25,10.59-10.82,28.68-26.58,39.19"/><ellipse class="cls-3" cx="391.22" cy="269.7" rx="1.57" ry="2.63"/><ellipse class="cls-3" cx="412.54" cy="281.95" rx="1.89" ry="2.12" transform="translate(-1.06 562.35) rotate(-68.49)"/><ellipse class="cls-10" cx="463.27" cy="212.65" rx="4.11" ry="2.9" transform="translate(60.64 525.26) rotate(-62.48)"/><path class="cls-9" d="M250.87,255.53a22,22,0,0,1-.36,2.51,25,25,0,0,1-4.13,9.3c-.43.63-.9,1.26-1.41,1.88-.68.85-1.43,1.69-2.25,2.54a52.71,52.71,0,0,1-9.67,7.92c-1.13.72-2.26,1.37-3.4,2-10.09,5.25-20.82,5.88-28.59-.07a20.87,20.87,0,0,1-7.62-13q-.15-.81-.27-1.65a40.62,40.62,0,0,1,.25-11.86q.08-.53.18-1.08a65.34,65.34,0,0,1,5.23-16.1c.09-.17.16-.34.25-.51s.17-.35.25-.52c7.92-15.53,28.21-13.31,39.41-4.73C246,237.66,251.65,246.14,250.87,255.53Z"/><path class="cls-4" d="M246.38,267.34c-.43.63-.9,1.26-1.41,1.88a8.48,8.48,0,0,0-.93.41c-.9.44-1.8.94-2.7,1.46-1.79,1.06-3.58,2.17-5.51,3.18a21.59,21.59,0,0,1-3.05,1.33A7.5,7.5,0,0,1,229,276,4,4,0,0,1,227,275a4.15,4.15,0,0,1-1.08-2,9.59,9.59,0,0,1-.14-3.59c.27-2.2.79-4.24,1-6.21a6.7,6.7,0,0,0-.21-2.73,1.89,1.89,0,0,0-1.54-1.32,3.94,3.94,0,0,0-1.22.05,10.18,10.18,0,0,0-1.33.42,21.75,21.75,0,0,0-2.7,1.33,55.91,55.91,0,0,1-5.73,3,11.81,11.81,0,0,1-3.52.91,6.26,6.26,0,0,1-4.11-1,7,7,0,0,1-2.48-3.23,12.84,12.84,0,0,1-.82-3.47,38.21,38.21,0,0,1,.07-6.52c.08-1.06.15-2.1.15-3.12a8.82,8.82,0,0,0-.08-1.48,2.35,2.35,0,0,0-.15-.62,1.38,1.38,0,0,0-.08-.2l0,0s-.08,0-.23.09a1.87,1.87,0,0,0-.46.44,7.43,7.43,0,0,0-.85,1.23c-.54.88-1,1.82-1.51,2.75a31.07,31.07,0,0,1-1.61,2.77,7.39,7.39,0,0,1-2.35,2.41,2.83,2.83,0,0,1-1.86.37,3,3,0,0,1-.66-.2q.08-.53.18-1.08a1.74,1.74,0,0,0,.64.22,2,2,0,0,0,1.16-.26,6.93,6.93,0,0,0,2-2.07A27.93,27.93,0,0,0,199,249.2l1.52-2.78a13.46,13.46,0,0,1,.88-1.4,4,4,0,0,1,.64-.67,1.31,1.31,0,0,1,1.86.07,1.81,1.81,0,0,1,.31.47,4,4,0,0,1,.32.89c.14.57.21,1.11.29,1.64.14,1.09.23,2.14.35,3.19a48.34,48.34,0,0,0,1,6c.45,1.88,1.22,3.63,2.24,4.26a3.15,3.15,0,0,0,1.89.48,11.11,11.11,0,0,0,2.61-.49c1.84-.57,3.75-1.42,5.73-2.23,1-.4,2-.8,3.1-1.12a8,8,0,0,1,3.63-.35,4.05,4.05,0,0,1,1.87.94,4.14,4.14,0,0,1,1.12,1.69,9.46,9.46,0,0,1,.42,3.5c-.05,2.23-.42,4.32-.51,6.32a9.2,9.2,0,0,0,.19,2.66,1.39,1.39,0,0,0,1.12,1.15,5.09,5.09,0,0,0,2.45-.25,21.67,21.67,0,0,0,2.77-1.08c1.86-.84,3.68-1.86,5.59-2.81,1-.47,1.92-.94,3-1.33a11,11,0,0,1,1.62-.5A4.89,4.89,0,0,1,246.38,267.34Z"/><path class="cls-4" d="M233.05,279.68c-1.13.72-2.26,1.37-3.4,2-1.28.39-2.58.78-3.93,1.08a15.89,15.89,0,0,1-2.87.42,6.73,6.73,0,0,1-3.1-.36,4.66,4.66,0,0,1-1.44-1,3.1,3.1,0,0,1-.55-.86,2.38,2.38,0,0,1-.17-1.08,3.81,3.81,0,0,1,.59-1.7,13.33,13.33,0,0,1,.82-1.24,6,6,0,0,0,1.15-2,.76.76,0,0,0-.12-.64,2.26,2.26,0,0,0-.71-.64c-1.17-.76-2.84-.43-4.52.14a36.53,36.53,0,0,1-5.46,1.69,8.11,8.11,0,0,1-3.18,0,7.05,7.05,0,0,1-3-1.38,9.94,9.94,0,0,1-3.16-5.22,43.88,43.88,0,0,1-1-5.58,10.76,10.76,0,0,0-.62-2.5c-.15-.35-.39-.49-.42-.46s-.43.3-.64.65a17.8,17.8,0,0,0-1.21,2.39c-.37.85-.74,1.71-1.14,2.56a16.88,16.88,0,0,1-1.41,2.51l-.12.16q-.15-.81-.27-1.65c.28-.47.54-1,.79-1.5.81-1.64,1.41-3.37,2.41-5.09a3.9,3.9,0,0,1,.49-.64,1.64,1.64,0,0,1,.88-.53,1.39,1.39,0,0,1,1.12.29,2.3,2.3,0,0,1,.6.72,11.46,11.46,0,0,1,.94,2.81,41.12,41.12,0,0,0,1.47,5.25,8.84,8.84,0,0,0,2.71,4,5.45,5.45,0,0,0,4.39.94,41.06,41.06,0,0,0,5.2-1.47,12.51,12.51,0,0,1,3-.57,5.3,5.3,0,0,1,3.24.83,4.19,4.19,0,0,1,1.3,1.26,2.82,2.82,0,0,1,.36,2,4.65,4.65,0,0,1-.68,1.59c-.28.44-.57.83-.84,1.2a5.19,5.19,0,0,0-1.11,1.95.7.7,0,0,0,.23.59,2.59,2.59,0,0,0,.83.59,5.27,5.27,0,0,0,2.34.53,15.09,15.09,0,0,0,2.64-.28c1.78-.33,3.56-.84,5.38-1.28C231.56,280,232.29,279.8,233.05,279.68Z"/><path class="cls-4" d="M250.87,255.53a22,22,0,0,1-.36,2.51c-.75.5-1.49,1-2.26,1.51a16.3,16.3,0,0,1-5.76,2.67,5.22,5.22,0,0,1-1.93,0,4.05,4.05,0,0,1-1.87-.91,6.94,6.94,0,0,1-2-2.94,35.92,35.92,0,0,1-1.44-5.93,11.55,11.55,0,0,0-1.86-5.05c-1-1.27-2.72-1.44-4.52-1.06s-3.64,1.08-5.68,1.56a14.21,14.21,0,0,1-3.27.4,8.79,8.79,0,0,1-3.53-.75,7.75,7.75,0,0,1-2.89-2.29,9.82,9.82,0,0,1-1.61-3,26.76,26.76,0,0,1-1-6.11,8.92,8.92,0,0,0-.54-2.64,1.09,1.09,0,0,0-.25-.35.31.31,0,0,0-.3-.06,3.54,3.54,0,0,0-1.15.51,25.94,25.94,0,0,0-2.33,1.73c-.78.6-1.55,1.23-2.39,1.81a7.86,7.86,0,0,1-2.84,1.34,2.69,2.69,0,0,1-1.79-.22,2.18,2.18,0,0,1-.49-.35c.09-.17.16-.34.25-.51s.17-.35.25-.52a1.67,1.67,0,0,0,.5.41,1.59,1.59,0,0,0,1.07.12,7.68,7.68,0,0,0,2.46-1.17c1.62-1,3.07-2.34,4.74-3.52a4.63,4.63,0,0,1,1.49-.76,1.62,1.62,0,0,1,1.13.13,2.13,2.13,0,0,1,.77.71,12.79,12.79,0,0,1,1.19,3c1.16,3.78,2.63,7.41,5.23,8.55a9.07,9.07,0,0,0,4.78.55c1.84-.15,3.8-.56,5.89-.73a10.92,10.92,0,0,1,3.3.18,6.42,6.42,0,0,1,1.65.69,5.87,5.87,0,0,1,1.35,1.17,10.23,10.23,0,0,1,1.61,2.86,29,29,0,0,1,.94,2.92,42.72,42.72,0,0,0,1.68,5.45,5.17,5.17,0,0,0,1.27,1.89,1.68,1.68,0,0,0,.74.4,2.7,2.7,0,0,0,1,0,8.57,8.57,0,0,0,2.44-.77c.84-.38,1.69-.82,2.52-1.3l2.58-1.45Z"/><ellipse class="cls-3" cx="380.95" cy="237.8" rx="1.3" ry="3.07"/><ellipse class="cls-3" cx="384.67" cy="254.21" rx="1.81" ry="2.59" transform="translate(-50.86 102.87) rotate(-14.3)"/><ellipse class="cls-9" cx="518.91" cy="157.79" rx="47.38" ry="33.68"/><path class="cls-4" d="M359.92,100.16,351.85,153a4.6,4.6,0,0,1-2.08,3.15l-50.36,31.49a1.28,1.28,0,0,1-1.08.15,1.34,1.34,0,0,1-1-1.55l9.26-52.68a8.66,8.66,0,0,1,.94-2.7,8.76,8.76,0,0,1,3-3.16l46.9-29.18a1.61,1.61,0,0,1,2.21.47A1.58,1.58,0,0,1,359.92,100.16Z"/><path class="cls-10" d="M359.66,99l-24.78,54.59a5.51,5.51,0,0,1-.59,1,3.8,3.8,0,0,0,.89.1h16.05a4.61,4.61,0,0,0,.62-1.67l8.07-52.85A1.58,1.58,0,0,0,359.66,99Z"/><path class="cls-12" d="M307.54,130.87a8.66,8.66,0,0,0-.94,2.7l-9.26,52.68a1.34,1.34,0,0,0,1,1.55l35.24-32.45a6.51,6.51,0,0,0,.72-.77,3.88,3.88,0,0,1-1.72-.91Z"/><path class="cls-9" d="M359.66,99a1.61,1.61,0,0,0-2.21-.47l-46.9,29.18a8.76,8.76,0,0,0-3,3.16l25,22.8a3.88,3.88,0,0,0,1.72.91,5.51,5.51,0,0,0,.59-1Z"/><path class="cls-6" d="M502,177.35c.26,1.39.56,2.75.88,4-12.88-2.68-23.59-8.3-30.07-15.58a24.27,24.27,0,0,1-1.15-5.13C477.87,168.37,488.76,174.43,502,177.35Z"/><path class="cls-6" d="M565.55,163.71a26,26,0,0,1-2.16,5.71,54,54,0,0,1-16.79,9.25,27,27,0,0,0,.38-3.89A51.15,51.15,0,0,0,565.55,163.71Z"/><path class="cls-10" d="M547,174.78a27,27,0,0,1-.38,3.89A80.18,80.18,0,0,1,520,183a84,84,0,0,1-17.11-1.72c-.32-1.2-.62-2.56-.88-4a83.81,83.81,0,0,0,18,1.91A79.88,79.88,0,0,0,547,174.78Z"/><ellipse class="cls-4" cx="518.91" cy="137.03" rx="30.49" ry="13.39"/><path class="cls-4" d="M507.37,129.78s6-3,7.83-8.35h7.11s3.4,6.39,9.16,7.73"/><path class="cls-6" d="M506.68,149.55s-2.24,4.84,10.27,4.22,15.92-.69,15.92-.69,2.62-.85,4.24,2.55,6.72,11.28,15.07,9.58c0,0,4.77-.65,5.33-6.54a11.71,11.71,0,0,0-2-7.48,18.24,18.24,0,0,0-5.23-5.4,1.41,1.41,0,0,1,0-2.29c1.39-1.16,1-1.85,1-1.85s.84-1.15-2.44-2.2"/><path class="cls-5" d="M502,177.35c.26,1.39.56,2.75.88,4-12.88-2.68-23.59-8.3-30.07-15.58a24.27,24.27,0,0,1-1.15-5.13C477.87,168.37,488.76,174.43,502,177.35Z"/><path class="cls-5" d="M565.55,163.71a26,26,0,0,1-2.16,5.71,54,54,0,0,1-16.79,9.25,27,27,0,0,0,.38-3.89A51.15,51.15,0,0,0,565.55,163.71Z"/><ellipse class="cls-5" cx="518.71" cy="121.43" rx="3.51" ry="1.03"/><ellipse class="cls-4" cx="546.6" cy="155.25" rx="6.1" ry="8.55" transform="translate(10.82 344.49) rotate(-35.31)"/><ellipse class="cls-12" cx="547.58" cy="154.56" rx="6.1" ry="8" transform="translate(11.4 344.93) rotate(-35.31)"/><ellipse class="cls-10" cx="550.5" cy="157.33" rx="1.98" ry="2.09" transform="translate(10.33 347.13) rotate(-35.31)"/><path class="cls-16" d="M495.54,95.45c3.24,6.8,12.51,6,21,11.28S521,121.25,521,121.25"/><path class="cls-16" d="M516.5,121.11s2.63-11.9-9.27-11.82-13-2.86-13-2.86"/><path class="cls-5" d="M582.46,274.14c-5.14-22.34,3.9-41.5,3.9-41.5,7.77-16.46,20.11-24.53,25.63-28.13,0,0,13.09-8.56,25.06-7.8a9.31,9.31,0,0,1,4.18,1.11c1.92,1.07,5,3.77,6.41,16.71.89,8,1.5,13.43,0,20.9-2.81,14-10.56,22.9-14.48,27.29a63.09,63.09,0,0,1-21.73,15.88c-4.61,2-7.9,2.61-14.49,3.9-5.44,1.07-7.56,1-9.47,0C584.53,280.9,583.24,277.53,582.46,274.14Z"/><path class="cls-10" d="M595,254.12s.88,6.63,2.92,5.43-2.19-5.9-2.19-5.9S595.48,253.33,595,254.12Z"/><path class="cls-10" d="M603.47,246.13s-1.36.78-1.78,3.5.32,3.08.32,3.08,1.51.31,1.82-2.25A9.75,9.75,0,0,0,603.47,246.13Z"/><path class="cls-10" d="M590.94,248.08a7.94,7.94,0,0,0-1-2c-.32-.42-1.17-1.19-1.57-.47a2.06,2.06,0,0,0,.25,2,8.72,8.72,0,0,0,.51.73,6.81,6.81,0,0,0,.34.78c.32.67.72,1.51,1.49,1.73a.3.3,0,0,0,.37-.28A5.67,5.67,0,0,0,590.94,248.08Z"/><path class="cls-10" d="M605.75,233.19a1.35,1.35,0,0,0-.52-.08.36.36,0,0,0-.23,0l-.07,0a2.86,2.86,0,0,0-1.12.58,7.12,7.12,0,0,0-2,2.29,2.65,2.65,0,0,0-.33.42,1.56,1.56,0,0,0,0,1.87.94.94,0,0,0,1,.08,9.11,9.11,0,0,0,1-.51,9.59,9.59,0,0,0,1.88-1.34,3.31,3.31,0,0,0,1.21-1.76A1.4,1.4,0,0,0,605.75,233.19Z"/><path class="cls-10" d="M610.47,240c-.14.27.24.72.62,1.15.93,1,3.31,3.15,5,2.3a1.66,1.66,0,0,0,1-1.43c-.1-.72-1.21-1.07-2.82-1.57C613.5,240.21,610.78,239.37,610.47,240Z"/><path class="cls-10" d="M593.2,237a5.37,5.37,0,0,0-2.3,2.37c-.14.34-.44,1.06-.11,1.49a1.34,1.34,0,0,0,1.12.35c1.91-.11,3.12-2.74,3.52-4.07.21-.75.15-1,0-1.08C595.08,235.77,593.93,236.55,593.2,237Z"/><path class="cls-10" d="M586.13,237.07c-.33.47.33,1.38.42,1.5s.94,1.27,2,1.05c.67-.15,1.32-.78,1.28-1.36-.06-1-2.07-1.32-2.29-1.36C587.1,236.82,586.39,236.71,586.13,237.07Z"/><path class="cls-10" d="M592.33,227.6a2.07,2.07,0,0,0-.6,2.16c.17.7.71,1.58,1.5,1.67a1.1,1.1,0,0,0,.87-.24c.15-.15.28-.4.14-1.5-.17-1.3-.25-1.95-.73-2.19A1.25,1.25,0,0,0,592.33,227.6Z"/><path class="cls-10" d="M602.91,224.19a3.27,3.27,0,0,0-1.15,2.06c0,.57.16,1.46.73,1.67a1.22,1.22,0,0,0,1-.21c.48-.32.66-.82,1-2.3.54-2.29.42-2.42.35-2.47C604.38,222.65,603.05,224,602.91,224.19Z"/><path class="cls-10" d="M601.41,218.55c-1.58.69-3.29,2-3.06,2.65.13.35.84.44,1.32.38.94-.11,1.31-.82,2.41-1.78,1.53-1.34,2.69-1.61,2.61-1.84S602.92,217.89,601.41,218.55Z"/><path class="cls-10" d="M614.05,225c-.67.08-1.09,1-1.91,2.89-.59,1.35-.92,2.12-.66,2.33s1.58-.67,2-1c1.08-.85,2.47-1.94,2.19-3A1.67,1.67,0,0,0,614.05,225Z"/><path class="cls-10" d="M620.88,226.84c-.58.09-.94,2.31-.28,4.18.3.85,1,2.29,1.77,2.19.56-.08.93-1,1-1.71.14-1.11-.45-2-1.53-3.58C621.35,227.17,621.09,226.8,620.88,226.84Z"/><path class="cls-10" d="M614.71,220.36c.11.36,1,.16,3.07.38s2.46.53,3,.11a1.61,1.61,0,0,0,.42-1.88c-.62-1.12-3.33-.88-5.08.07C615.56,219.33,614.6,220,614.71,220.36Z"/><path class="cls-10" d="M627.39,212.67c-.5.41-.42,1.35-.25,3.2.14,1.38.21,2.07.46,2.12.48.1,1.22-1.91,1.53-3.2.24-1,.41-1.72,0-2.12A1.41,1.41,0,0,0,627.39,212.67Z"/><path class="cls-10" d="M612.73,213.85c-.39.45.77,2.49,2.51,3.17.24.09,1.06.41,1.39.07s.06-.94,0-1.12c-.55-1.54-2.57-2-2.93-2.09C613.15,213.76,612.86,213.69,612.73,213.85Z"/><path class="cls-10" d="M618.13,207.41c-1.31.75-2.17,2.37-1.81,2.78s2.22-.34,3.3-1.56c.13-.15,1-1.13.74-1.53S618.94,206.94,618.13,207.41Z"/><path class="cls-10" d="M607.65,211.45c0,.57.79.94,1.32,1.18,1,.47,2.51.77,2.72.35s-1.14-1.48-1.4-1.67c-.63-.49-1.31-1-1.95-.77A1.06,1.06,0,0,0,607.65,211.45Z"/><path class="cls-3" d="M57.36,438.12c3-.87,1.23-5,1.23-5l-4.81-12.29.58-21.35-.58-4.27-5.64,2.15-.92,23.37,6,17.35Z"/><path class="cls-4" d="M22.83,411.49V423L8.45,451.54a5.44,5.44,0,0,0,1.72,6.89l18.25,12.9a9.26,9.26,0,0,0,8.76,1.06l24.67-9.68a5.67,5.67,0,0,0,3.1-7.6l-13.85-31,.41-28.85"/><path class="cls-5" d="M61.85,462.71,37.18,472.4A9.22,9.22,0,0,1,34,473l4-45.94V402.92l13.53-7.67-.41,28.86,13.85,31A5.67,5.67,0,0,1,61.85,462.71Z"/><polyline class="cls-6" points="35.7 414.72 35.7 427.75 31.82 471.31"/><path class="cls-7" d="M55.4,387.25l-13.46-5L28.47,385.1a8.72,8.72,0,0,0-6.92,8.53v16.92l2.64,1.95.28,12.06,6.65,3.19L31,416l4.71-1.24,6-6.71,3.88-12Z"/><polygon class="cls-3" points="31.13 427.75 32.51 426.23 32.51 415.56 30.99 415.96 31.13 427.75"/><path class="cls-4" d="M55.4,387.25l-13.53,3.14a8,8,0,0,0-6.17,7.77v16.56s6.38-.56,7.22-2.64l.13-5.55L46.8,401l8.6-1.66Z"/><line class="cls-6" x1="43.05" y1="406.53" x2="43.05" y2="392.38"/><polyline class="cls-6" points="51.1 424.1 35.7 427.75 33.52 427.13"/><path class="cls-5" d="M24.19,397.4l1.52-1.34s5.21-1,6.11,6.66S29,410.21,29,410.21l-2.21-.35"/><path class="cls-8" d="M20.37,399.54l3.17-2.07s3.7-1.11,4.72,5.36-1.2,7-1.2,7l-5.89-.48"/><ellipse class="cls-7" cx="20.77" cy="404.46" rx="2.5" ry="4.94" transform="translate(-32.58 3) rotate(-4.63)"/><ellipse class="cls-5" cx="20.37" cy="404.7" rx="0.73" ry="1.87" transform="translate(-32.6 2.96) rotate(-4.63)"/><path class="cls-9" d="M176.77,333.27c0,.6,0,1.19,0,1.78a40.87,40.87,0,0,1-81.65,0c0-.59,0-1.18,0-1.78a40.86,40.86,0,1,1,81.71,0Z"/><path class="cls-3" d="M176.77,333.27c0,.6,0,1.19,0,1.78a40.69,40.69,0,0,1-.41,4.16c-9.58,6.78-24.13,11.11-40.42,11.11S105.07,346,95.5,339.21a40.69,40.69,0,0,1-.41-4.16c0-.59,0-1.18,0-1.78a40.86,40.86,0,1,1,81.71,0Z"/><path class="cls-10" d="M176.77,333.27c0,.6,0,1.19,0,1.78-9.58,6.95-24.31,11.4-40.83,11.4s-31.25-4.45-40.82-11.4c0-.59,0-1.18,0-1.78a40.86,40.86,0,1,1,81.71,0Z"/><circle class="cls-3" cx="135.92" cy="347.16" r="11.37"/><circle class="cls-9" cx="135.92" cy="347.16" r="8.04"/><circle class="cls-6" cx="135.92" cy="347.16" r="8.04"/><circle class="cls-11" cx="135.92" cy="347.16" r="5.69"/><path class="cls-9" d="M750.74,332.81c0,.6,0,1.19,0,1.78a37.63,37.63,0,0,1-.4,4.15,40.85,40.85,0,0,1-80.84,0,40.22,40.22,0,0,1-.4-4.15c0-.59,0-1.18,0-1.78a40.86,40.86,0,1,1,81.71,0Z"/><path class="cls-3" d="M750.74,332.81c0,.6,0,1.19,0,1.78a37.63,37.63,0,0,1-.4,4.15c-9.59,6.79-24.13,11.12-40.42,11.12s-30.84-4.33-40.42-11.12a40.22,40.22,0,0,1-.4-4.15c0-.59,0-1.18,0-1.78a40.86,40.86,0,1,1,81.71,0Z"/><path class="cls-9" d="M750.74,332.81c0,.6,0,1.19,0,1.78-9.58,7-24.3,11.4-40.82,11.4s-31.25-4.45-40.82-11.4c0-.59,0-1.18,0-1.78a40.86,40.86,0,1,1,81.71,0Z"/><path class="cls-9" d="M750.74,332.81c0,.6,0,1.19,0,1.78-9.58,7-24.3,11.4-40.82,11.4s-31.25-4.45-40.82-11.4c0-.59,0-1.18,0-1.78a40.86,40.86,0,1,1,81.71,0Z"/><circle class="cls-3" cx="709.88" cy="346.7" r="11.37"/><circle class="cls-9" cx="709.88" cy="346.7" r="8.04"/><circle class="cls-6" cx="709.88" cy="346.7" r="8.04"/><circle class="cls-11" cx="709.88" cy="346.7" r="5.69"/><path class="cls-9" d="M559.42,335.76c0,.6,0,1.2,0,1.79a40.86,40.86,0,0,1-81.64,0c0-.59,0-1.19,0-1.79a40.86,40.86,0,1,1,81.72,0Z"/><path class="cls-3" d="M559.42,335.76c0,.6,0,1.2,0,1.79a40.49,40.49,0,0,1-.4,4.15c-9.59,6.78-24.13,11.12-40.43,11.12s-30.83-4.34-40.41-11.12a40.49,40.49,0,0,1-.4-4.15c0-.59,0-1.19,0-1.79a40.86,40.86,0,1,1,81.72,0Z"/><path class="cls-3" d="M559.42,335.76c0,.6,0,1.2,0,1.79-9.58,6.94-24.3,11.39-40.83,11.39s-31.24-4.45-40.81-11.39c0-.59,0-1.19,0-1.79a40.86,40.86,0,1,1,81.72,0Z"/><circle class="cls-3" cx="518.56" cy="349.66" r="11.37"/><circle class="cls-9" cx="518.56" cy="349.66" r="8.04"/><circle class="cls-6" cx="518.56" cy="349.66" r="8.04"/><circle class="cls-11" cx="518.56" cy="349.66" r="5.69"/><path class="cls-9" d="M368.09,335.76c0,.6,0,1.2,0,1.79a40.86,40.86,0,0,1-81.24,4.15,37.86,37.86,0,0,1-.4-4.15c0-.59,0-1.19,0-1.79a40.86,40.86,0,1,1,81.71,0Z"/><path class="cls-3" d="M368.09,335.76c0,.6,0,1.2,0,1.79a40.49,40.49,0,0,1-.4,4.15c-9.59,6.78-24.14,11.12-40.43,11.12s-30.83-4.34-40.41-11.12a37.86,37.86,0,0,1-.4-4.15c0-.59,0-1.19,0-1.79a40.86,40.86,0,1,1,81.71,0Z"/><path class="cls-5" d="M368.09,335.76c0,.6,0,1.2,0,1.79-9.58,6.94-24.3,11.39-40.83,11.39s-31.24-4.45-40.81-11.39c0-.59,0-1.19,0-1.79a40.86,40.86,0,1,1,81.71,0Z"/><circle class="cls-3" cx="327.24" cy="349.66" r="11.37"/><circle class="cls-9" cx="327.24" cy="349.66" r="8.04"/><circle class="cls-6" cx="327.24" cy="349.66" r="8.04"/><circle class="cls-11" cx="327.24" cy="349.66" r="5.69"/><path class="cls-3" d="M298.23,305.78a49.7,49.7,0,0,0,17.3,21.43,2.08,2.08,0,0,1,.54,2.89l-3.8,5.63a2.1,2.1,0,0,1-2.72.68c-5.61-3-23.3-12.85-21.34-17.94,0,0-.38-4,8.39-13A1,1,0,0,1,298.23,305.78Z"/><path class="cls-3" d="M355.1,305.78a49.75,49.75,0,0,1-17.31,21.43,2.09,2.09,0,0,0-.54,2.89l3.8,5.63a2.1,2.1,0,0,0,2.72.68c5.61-3,23.3-12.85,21.35-17.94,0,0,.37-4-8.4-13A1,1,0,0,0,355.1,305.78Z"/><path class="cls-10" d="M548.89,308.43v35a74,74,0,0,1-19,4.92v-47.5a32.41,32.41,0,0,0-22.74,0v47.5a73.73,73.73,0,0,1-19-4.92v-35a40.74,40.74,0,0,1,60.66,0Z"/><path class="cls-10" d="M651.12,424.13l-.21,3.52,5.38-.41A1.84,1.84,0,0,0,658,425l-.06-.31a2,2,0,0,0-2.47-1.56Z"/><path class="cls-10" d="M650.13,431.53l-.38-2.39,4.22-.5a1.11,1.11,0,0,1,1.23,1.1v.73a1.42,1.42,0,0,1-1.57,1.42Z"/><path class="cls-4" d="M635.7,430.64l15.21-3s2.8-2.46-.79-4.12l-10.61,1.54Z"/><path class="cls-10" d="M658.05,420.7l4.74-.53a1.66,1.66,0,0,0,1.58-2l-.22-.93a1.44,1.44,0,0,0-1.6-1.09l-5.47.78Z"/><path class="cls-4" d="M642.35,424.71,658,421.18s1.5-2.93-1.22-4.63l-10.61,1.77Z"/><path class="cls-4" d="M634.23,435.61l15.08-3s2.9-2.69-.66-4.14L638,430Z"/><path class="cls-10" d="M659.87,406.63l-42.75,48.05a1.42,1.42,0,0,1-.61.37l-35.26,9a5.79,5.79,0,0,1-2.65.05,5.64,5.64,0,0,1-2.83-1.49l-2.45-2.34a6.61,6.61,0,0,1-2-4.2l-3-38.4a5.68,5.68,0,0,1,4.73-6l77.43-12.85a1.24,1.24,0,0,1,.9.21l8.28,5.79a1.21,1.21,0,0,1,.44.55A1.26,1.26,0,0,1,659.87,406.63Z"/><path class="cls-4" d="M659.87,406.63l-42.75,48.05a1.42,1.42,0,0,1-.61.37l-35.26,9a5.79,5.79,0,0,1-2.65.05l-1.21-40a3.43,3.43,0,0,1,2.8-3.44l79.52-15.39a.47.47,0,0,1,.38.07A1.26,1.26,0,0,1,659.87,406.63Z"/><path class="cls-3" d="M581.9,427l.87,23.35a3.08,3.08,0,0,0,3.6,2.92l31.16-6.5a6.12,6.12,0,0,0,3.46-1.88l26.32-31a1.69,1.69,0,0,0-1.5-2.82L585,423.18A3.68,3.68,0,0,0,581.9,427Z"/><path class="cls-5" d="M330.9,522.12c1.29.72,11.28-13.42,14.13-28,.31-1.61.6-3.14.27-3.26C343.73,490.3,329.09,521.1,330.9,522.12Z"/><path class="cls-5" d="M332.94,520.63c1.12-5.24,10.76-8.84,19-8.15,1.1.09,8.47.7,8.83,3.12.44,2.92-9.84,4.77-24.31,9.64a3,3,0,0,1-2.48,0C332.69,524.43,332.65,522,332.94,520.63Z"/><path class="cls-4" d="M334.43,522.53c8.81-6.62,16-11.83,20.92-15.35,8.17-5.85,14.87-10.47,14-12.5-.27-.61-1.16-.87-2.58-.95-3.82-.22-10.59.89-22.55,11.82a107,107,0,0,0-12.9,14.12Z"/><path class="cls-10" d="M333.75,519c5.11-5.36,12-12.9,19.7-22.42,5.86-7.24,10.68-13.21,9.91-14-1-1-11.22,7.11-19.56,15.9-6.7,7.07-15.95,18.54-14,20.78C330.48,520,332.3,519.54,333.75,519Z"/><path class="cls-5" d="M330,521.17c6.54-12.91,8.06-23.63,8.28-30.83.17-5.53-.25-14.69-2.17-14.95s-4.62,8.81-5.43,11.55c-4.1,13.89-3.39,26.71-3,33,.05.83.1,1.5.14,1.9Z"/><path class="cls-4" d="M322.61,513.56c-1.55-.67,0-4.13-1.49-9.64-1.78-6.6-6-9.06-4.89-10.87,1-1.62,5.43-1.27,8.42.55,4.64,2.81,6.3,9.44,4.35,14.26C327.62,511.26,324.23,514.26,322.61,513.56Z"/><path class="cls-12" d="M326.28,518.45c-2-.15-3.31-11.21-.95-20.78.4-1.64,1.42-5.74,2.58-5.7,1.4,0,2.57,6,2.58,11C330.51,510.33,328,518.58,326.28,518.45Z"/><path class="cls-12" d="M331.71,517.91A41.43,41.43,0,0,0,340,504.73c2-5.15,3.45-12.14,2-12.76s-5.27,5.35-5.84,6.24a43.82,43.82,0,0,0-6.52,18.61Z"/><path class="cls-12" d="M336.11,522.72c3,.15,4.34-2,8-3.94,5-2.59,8.36-1.52,8.55-2.72.29-1.7-6.19-6-12.09-4.34-5.16,1.43-9,7.16-7.87,9.5C333.39,522.58,335.69,522.7,336.11,522.72Z"/><path class="cls-5" d="M163.75,523.56l6.11-10.47a.84.84,0,0,0-.79-1.26c-2.83.18-8.79,1-11.64,4.86C157.43,516.69,153.72,524,163.75,523.56Z"/><path class="cls-13" d="M124.2,525.37a10.69,10.69,0,0,1-10.69,10.68c-5.9,0-9.6-3.36-9.6-9.26s3.7-12.11,9.6-12.11A10.7,10.7,0,0,1,124.2,525.37Z"/><circle class="cls-10" cx="108.98" cy="543.36" r="8.29"/><path class="cls-9" d="M130.85,534.2c0,6.93-3.35,11.29-10.2,12.32-9.76,1.46-14.88-5.39-14.88-12.32a12.54,12.54,0,1,1,25.08,0Z"/><path class="cls-4" d="M156.55,516.69s17.18-7.35,18.86-13.35a.94.94,0,0,0-1-1.15c-2.59.23-9.6,2.07-20.67,13.73Z"/><path class="cls-10" d="M148.13,510.69s7.05-16.08,7-23.77a.84.84,0,0,0-1-.8c-2.78.7-10.67,4-13.61,19.44l.83,7.09Z"/><path class="cls-12" d="M138.23,504.15s-8.22-16.46,19.51-26a.61.61,0,0,1,.74.86C155.88,484,146.34,501.35,138.23,504.15Z"/><path class="cls-10" d="M148.13,512.85s3.06-23.12,28.42-28.67a1.36,1.36,0,0,1,1.65,1.36c-.17,4.69-2.8,18.4-26.23,30.38Z"/><circle class="cls-4" cx="110.89" cy="560.04" r="9.76"/><path class="cls-4" d="M154.73,548.76c0,6-5.82,10.3-11.78,10.3s-10.79-3.85-10.79-9.81A10.8,10.8,0,0,1,143,538.45C148.91,538.45,154.73,542.8,154.73,548.76Z"/><circle class="cls-10" cx="123.32" cy="507.16" r="12.43"/><path class="cls-10" d="M172.67,534.2c0,7.83-8.56,15-18,13.6-6.91-1.06-9.07-5.77-9.07-13.6S151.23,520,158.22,520,172.67,526.37,172.67,534.2Z"/><path class="cls-4" d="M137.66,560c0,5.39-6.33,8.62-11.72,8.62s-7.8-3.23-7.8-8.62a9.76,9.76,0,1,1,19.52,0Z"/><path class="cls-17" d="M127.9,554.26a8.72,8.72,0,0,1-17.44,0,8.72,8.72,0,1,1,17.44,0Z"/><path class="cls-9" d="M145.79,514.14c0,7.34-5.09,16.57-12.43,16.57s-15.22-6.39-15.22-13.74,7-16.14,14.34-16.14A13.31,13.31,0,0,1,145.79,514.14Z"/><path class="cls-12" d="M147.22,541.12c3.15,6.76-4.54,17.07-11.47,17.07-4.9,0-15.1-2.4-15.1-14,0-6.92,7.63-12.54,14.56-12.54S144.3,534.84,147.22,541.12Z"/><path class="cls-12" d="M160.29,523.51c0,6.93-8.4,16.58-15.32,16.58s-15.32-4.63-15.32-11.56,8.39-19,15.32-19S160.29,516.59,160.29,523.51Z"/><path class="cls-14" d="M550.51,500.81a39.85,39.85,0,0,0,5.66.63l3.73-7.17s-28.4-3.52-32.2-15.81c0,0-5.28,2-4.4,6.43.34,1.68,2.83,4.39,6.69,7.15l-.68,7.35a78.22,78.22,0,0,0-14.46,7.35c-1.61,1.05-3.27,2.21-4.87,3.48-9.08,7.18-34,9.67-34,9.67V526s2.2,5.42,11.86,6.59l1.45-.45c-5.68,2.74-10.23,4.7-10.23,4.7L480,542s10.51,7.21,23.15,2.14a63.15,63.15,0,0,1-17,8.1v5.27s15.21,9.7,33.57-4.8a56.09,56.09,0,0,1-13.22,12.57l1.46,3.94s21.23,10.69,36.31-18.59c6.11-11.87,7.82-21,7.69-27.61-.19-9.71-4.32-14.11-4.32-14.11S545.26,502.77,550.51,500.81Z"/><path class="cls-5" d="M544.24,550.63c-15.08,29.28-36.31,18.59-36.31,18.59l-1.46-3.94a56.09,56.09,0,0,0,13.22-12.57c-18.36,14.5-33.57,4.8-33.57,4.8v-5.27a63.15,63.15,0,0,0,17-8.1C490.48,549.21,480,542,480,542l-.88-5.13s4.55-2,10.23-4.7l-1.45.45C478.21,531.45,476,526,476,526v-6.14s24.89-2.49,34-9.67c1.6-1.27,3.26-2.43,4.87-3.48.45,1.91-.74,5,.69,5.83,1,.57,2.18-.53,3.07.14,1.19.9-.27,3.29.88,4.54s3.93-.57,5.86.88c1.72,1.29.8,3.71,2.2,4.39,2,.94,4.71-3.34,6.87-2.48s1,5.13,3.08,6,4-2.9,7.91-2.48c1.8.19,2.2,1.07,3.81.87a4.49,4.49,0,0,0,2.71-1.4C552.06,529.65,550.35,538.76,544.24,550.63Z"/><path class="cls-10" d="M552.28,522.66a4.82,4.82,0,0,1-3.06,1.76c-1.61.2-2-.68-3.81-.87-3.93-.42-5.87,3.33-7.91,2.48s-1-5.2-3.08-6-4.92,3.42-6.87,2.48c-1.4-.68-.48-3.1-2.2-4.39-1.93-1.45-4.58.51-5.86-.88s.31-3.64-.88-4.54c-.89-.67-2.09.43-3.07-.14-1.24-.73-.5-3.18-.59-5.06h0l.28-.18,1.11-.71a1.72,1.72,0,0,0,.71,1.47c1,.58,2.18-.52,3.08.15,1.18.89-.28,3.28.87,4.54s3.92-.57,5.86.88c1.72,1.29.8,3.71,2.2,4.39,2,.94,4.71-3.34,6.87-2.49s1,5.14,3.08,6,4-2.9,7.91-2.48c1.8.19,2.21,1.06,3.81.87a4.1,4.1,0,0,0,1.26-.35C552.12,520.54,552.23,521.56,552.28,522.66Z"/><path class="cls-15" d="M515.36,513.91a54.62,54.62,0,0,0-4.92,5.36c-5,6.3-31.18,17.57-31.18,17.57l.87,5.13s10.5,7.21,23.14,2.17"/><path class="cls-15" d="M521.62,521c-2.86,5.29-7.4,12.84-12.5,18.19-8.64,9.08-22.84,13-22.84,13v5.28s15.23,9.7,33.61-4.82"/><path class="cls-15" d="M533.22,526.06c-3.25,10.59-10.83,28.68-26.59,39.18"/><ellipse class="cls-10" cx="558.33" cy="497.82" rx="4.11" ry="2.9" transform="translate(-141.13 762.98) rotate(-62.48)"/><path class="cls-9" d="M345.93,540.7a22.15,22.15,0,0,1-.36,2.52,25,25,0,0,1-4.13,9.3c-.44.62-.91,1.25-1.41,1.88-.68.84-1.43,1.69-2.25,2.54a52.43,52.43,0,0,1-9.68,7.92c-1.12.71-2.25,1.37-3.39,2-10.09,5.25-20.82,5.88-28.59-.07a20.87,20.87,0,0,1-7.62-13c-.1-.54-.2-1.1-.27-1.65a40.62,40.62,0,0,1,.25-11.86q.07-.54.18-1.08a64.79,64.79,0,0,1,5.23-16.1c.09-.17.16-.35.25-.52l.25-.51c7.91-15.53,28.21-13.31,39.41-4.74C341.06,522.84,346.71,531.32,345.93,540.7Z"/><path class="cls-4" d="M341.44,552.52c-.44.62-.91,1.25-1.41,1.88a8.4,8.4,0,0,0-.93.4c-.91.44-1.81.94-2.7,1.47-1.79,1.06-3.59,2.17-5.51,3.18a21.59,21.59,0,0,1-3.05,1.33,7.64,7.64,0,0,1-3.75.43,4.06,4.06,0,0,1-2-1.06A4.31,4.31,0,0,1,321,558.2a9.85,9.85,0,0,1-.13-3.6c.27-2.19.79-4.23,1-6.21a6.67,6.67,0,0,0-.21-2.72,1.89,1.89,0,0,0-1.54-1.33,4.28,4.28,0,0,0-1.22.06,11.88,11.88,0,0,0-1.33.41,21.84,21.84,0,0,0-2.7,1.34,58,58,0,0,1-5.73,3,12.1,12.1,0,0,1-3.53.91,6.29,6.29,0,0,1-4.1-1,6.94,6.94,0,0,1-2.48-3.24,12.41,12.41,0,0,1-.82-3.46,38.34,38.34,0,0,1,.07-6.53c.08-1.05.15-2.1.15-3.11a8.82,8.82,0,0,0-.08-1.48,2.35,2.35,0,0,0-.15-.62,1,1,0,0,0-.08-.2l0,0s-.08,0-.23.08a2.34,2.34,0,0,0-.46.44,8.37,8.37,0,0,0-.85,1.23c-.54.88-1,1.83-1.51,2.75a31.23,31.23,0,0,1-1.61,2.78,7.49,7.49,0,0,1-2.35,2.41,2.68,2.68,0,0,1-2.52.17q.07-.54.18-1.08a1.74,1.74,0,0,0,.64.22,2,2,0,0,0,1.16-.26,6.85,6.85,0,0,0,2-2.08,29.09,29.09,0,0,0,1.62-2.64l1.52-2.78a12,12,0,0,1,.88-1.4,3.64,3.64,0,0,1,.64-.67,1.29,1.29,0,0,1,1.85.07,1.51,1.51,0,0,1,.32.47,3.94,3.94,0,0,1,.32.88c.13.57.21,1.12.29,1.65.14,1.08.23,2.14.35,3.19a48.34,48.34,0,0,0,1,6c.45,1.88,1.22,3.63,2.24,4.26a3.22,3.22,0,0,0,1.89.48,10.94,10.94,0,0,0,2.6-.49c1.85-.57,3.76-1.43,5.74-2.23,1-.4,2-.8,3.1-1.13a8,8,0,0,1,3.63-.34,4,4,0,0,1,3,2.63,9.41,9.41,0,0,1,.42,3.5c-.05,2.23-.42,4.32-.51,6.31a8.9,8.9,0,0,0,.19,2.67,1.38,1.38,0,0,0,1.12,1.15,5.09,5.09,0,0,0,2.45-.25,22.48,22.48,0,0,0,2.76-1.08c1.87-.85,3.69-1.86,5.6-2.81a32,32,0,0,1,3-1.33,9.88,9.88,0,0,1,1.62-.5A4.57,4.57,0,0,1,341.44,552.52Z"/><path class="cls-4" d="M328.1,564.86c-1.12.71-2.25,1.37-3.39,2-1.29.38-2.59.78-3.93,1.08a17.88,17.88,0,0,1-2.87.42,6.79,6.79,0,0,1-3.11-.36,4.61,4.61,0,0,1-1.43-1,3,3,0,0,1-.55-.85,2.4,2.4,0,0,1-.17-1.08,3.88,3.88,0,0,1,.58-1.7c.27-.46.55-.85.83-1.24a6.14,6.14,0,0,0,1.15-2,.76.76,0,0,0-.12-.64,2.14,2.14,0,0,0-.71-.64c-1.17-.76-2.84-.43-4.52.14a38.13,38.13,0,0,1-5.46,1.69,8.31,8.31,0,0,1-3.18,0,7,7,0,0,1-3-1.39,10,10,0,0,1-3.17-5.21,46,46,0,0,1-1-5.58,11,11,0,0,0-.62-2.51c-.15-.34-.39-.49-.43-.46s-.42.31-.63.66a16.19,16.19,0,0,0-1.21,2.39c-.37.85-.74,1.71-1.14,2.56a17.39,17.39,0,0,1-1.41,2.51l-.12.16c-.1-.54-.2-1.1-.27-1.65.28-.48.54-1,.79-1.5.81-1.65,1.41-3.37,2.41-5.09a5.14,5.14,0,0,1,.48-.65,1.73,1.73,0,0,1,.89-.53,1.43,1.43,0,0,1,1.12.3,2.42,2.42,0,0,1,.6.71,11.08,11.08,0,0,1,.93,2.82,45.24,45.24,0,0,0,1.47,5.25,9,9,0,0,0,2.72,4,5.53,5.53,0,0,0,4.39.94,40.94,40.94,0,0,0,5.19-1.47,13.23,13.23,0,0,1,3-.58,5.36,5.36,0,0,1,3.24.83,4.34,4.34,0,0,1,1.3,1.27,2.81,2.81,0,0,1,.36,2,4.65,4.65,0,0,1-.68,1.59c-.28.44-.57.83-.85,1.2a5.18,5.18,0,0,0-1.1,1.94.71.71,0,0,0,.23.6,2.63,2.63,0,0,0,.83.59,5.41,5.41,0,0,0,2.34.53,16.12,16.12,0,0,0,2.64-.28c1.78-.34,3.56-.84,5.38-1.28C326.62,565.15,327.35,565,328.1,564.86Z"/><path class="cls-4" d="M345.93,540.7a22.15,22.15,0,0,1-.36,2.52c-.75.49-1.49,1-2.26,1.5a16.31,16.31,0,0,1-5.76,2.68,5.23,5.23,0,0,1-1.93,0,4,4,0,0,1-1.87-.9,6.91,6.91,0,0,1-2-2.94,35.92,35.92,0,0,1-1.44-5.93,11.55,11.55,0,0,0-1.86-5.05c-1-1.28-2.72-1.44-4.52-1.06s-3.65,1.08-5.69,1.55a13.54,13.54,0,0,1-3.26.4,8.58,8.58,0,0,1-3.53-.74,8,8,0,0,1-2.9-2.29,9.94,9.94,0,0,1-1.6-3,26.67,26.67,0,0,1-1-6.11,9,9,0,0,0-.54-2.64,1.18,1.18,0,0,0-.25-.34.31.31,0,0,0-.3-.07,3.82,3.82,0,0,0-1.15.52,25.8,25.8,0,0,0-2.33,1.72c-.78.61-1.55,1.23-2.39,1.81a7.87,7.87,0,0,1-2.84,1.35,2.69,2.69,0,0,1-1.79-.22,2.54,2.54,0,0,1-.49-.35c.09-.17.16-.35.25-.52l.25-.51a1.78,1.78,0,0,0,.49.41,1.57,1.57,0,0,0,1.08.11,7.75,7.75,0,0,0,2.46-1.16c1.61-1,3.07-2.35,4.74-3.53a4.83,4.83,0,0,1,1.49-.75,1.67,1.67,0,0,1,1.13.12,2.15,2.15,0,0,1,.77.72,13.37,13.37,0,0,1,1.19,3c1.16,3.79,2.63,7.41,5.22,8.56a9.21,9.21,0,0,0,4.79.55c1.84-.16,3.8-.56,5.89-.73a10.62,10.62,0,0,1,3.3.18,6.42,6.42,0,0,1,1.65.69,6.08,6.08,0,0,1,1.35,1.17,9.82,9.82,0,0,1,1.6,2.86,26.1,26.1,0,0,1,.95,2.92,42.72,42.72,0,0,0,1.68,5.45,5.17,5.17,0,0,0,1.27,1.89,1.92,1.92,0,0,0,.74.4,2.94,2.94,0,0,0,1,0,8.57,8.57,0,0,0,2.44-.77c.84-.38,1.68-.83,2.52-1.3l2.57-1.45Z"/><ellipse class="cls-3" cx="476.01" cy="522.97" rx="1.3" ry="3.07"/><ellipse class="cls-3" cx="479.73" cy="539.38" rx="1.81" ry="2.59" transform="translate(-118.34 135.17) rotate(-14.3)"/><ellipse class="cls-9" cx="423.58" cy="442.97" rx="47.38" ry="33.68"/><path class="cls-4" d="M264.59,385.34l-8.07,52.84a4.54,4.54,0,0,1-.62,1.68,4.46,4.46,0,0,1-1.46,1.47l-50.36,31.49A1.28,1.28,0,0,1,203,473a1.34,1.34,0,0,1-1-1.55l9.26-52.68a8.68,8.68,0,0,1,3.95-5.87l46.9-29.17a1.61,1.61,0,0,1,2.21.47A1.58,1.58,0,0,1,264.59,385.34Z"/><path class="cls-10" d="M264.33,384.18l-24.78,54.58a4.89,4.89,0,0,1-.59,1,3.34,3.34,0,0,0,.89.11H255.9a4.54,4.54,0,0,0,.62-1.68l8.07-52.84A1.58,1.58,0,0,0,264.33,384.18Z"/><path class="cls-12" d="M212.22,416.05a8.68,8.68,0,0,0-.95,2.7L202,471.43a1.34,1.34,0,0,0,1,1.55l35.24-32.46a4.77,4.77,0,0,0,.72-.77,3.81,3.81,0,0,1-1.72-.9Z"/><path class="cls-9" d="M264.33,384.18a1.61,1.61,0,0,0-2.21-.47l-46.9,29.17a8.68,8.68,0,0,0-3,3.17l25,22.8a3.81,3.81,0,0,0,1.72.9,4.89,4.89,0,0,0,.59-1Z"/><path class="cls-6" d="M406.71,462.52c.27,1.4.56,2.75.88,4-12.88-2.68-23.59-8.3-30.07-15.57a25.05,25.05,0,0,1-1.15-5.13C382.54,453.54,393.43,459.61,406.71,462.52Z"/><path class="cls-6" d="M470.22,448.88a26.25,26.25,0,0,1-2.16,5.72,54,54,0,0,1-16.79,9.25,27.13,27.13,0,0,0,.38-3.89A51.16,51.16,0,0,0,470.22,448.88Z"/><path class="cls-10" d="M451.65,460a27.13,27.13,0,0,1-.38,3.89,80.43,80.43,0,0,1-26.57,4.35,84,84,0,0,1-17.11-1.73c-.32-1.2-.61-2.55-.88-4a83.17,83.17,0,0,0,18,1.92A80.13,80.13,0,0,0,451.65,460Z"/><ellipse class="cls-4" cx="423.58" cy="422.21" rx="30.49" ry="13.39"/><path class="cls-4" d="M412,415s6-3,7.83-8.34H427s3.4,6.39,9.17,7.72"/><path class="cls-6" d="M411.35,434.72s-2.24,4.85,10.27,4.23,15.92-.69,15.92-.69,2.62-.85,4.24,2.54,6.72,11.28,15.07,9.58c0,0,4.77-.64,5.34-6.53a11.88,11.88,0,0,0-2-7.49A18.39,18.39,0,0,0,455,431a1.41,1.41,0,0,1,0-2.29c1.39-1.16,1-1.86,1-1.86s.84-1.14-2.44-2.19"/><path class="cls-5" d="M406.71,462.52c.27,1.4.56,2.75.88,4-12.88-2.68-23.59-8.3-30.07-15.57a25.05,25.05,0,0,1-1.15-5.13C382.54,453.54,393.43,459.61,406.71,462.52Z"/><path class="cls-5" d="M470.22,448.88a26.25,26.25,0,0,1-2.16,5.72,54,54,0,0,1-16.79,9.25,27.13,27.13,0,0,0,.38-3.89A51.16,51.16,0,0,0,470.22,448.88Z"/><ellipse class="cls-5" cx="423.38" cy="406.61" rx="3.51" ry="1.03"/><ellipse class="cls-4" cx="451.27" cy="440.43" rx="6.1" ry="8.55" transform="translate(-171.55 341.86) rotate(-35.31)"/><ellipse class="cls-12" cx="452.25" cy="439.74" rx="6.1" ry="8" transform="translate(-170.97 342.29) rotate(-35.31)"/><ellipse class="cls-10" cx="455.17" cy="442.51" rx="1.98" ry="2.09" transform="translate(-172.03 344.49) rotate(-35.31)"/><path class="cls-16" d="M400.21,380.62c3.24,6.8,12.51,6,21,11.28s4.48,14.52,4.48,14.52"/><path class="cls-16" d="M421.17,406.29s2.63-11.9-9.27-11.82-13-2.86-13-2.86"/><path class="cls-5" d="M677.52,559.32c-5.14-22.34,3.9-41.5,3.9-41.5,7.77-16.47,20.11-24.53,25.62-28.14,0,0,13.1-8.55,25.07-7.8a9.46,9.46,0,0,1,4.18,1.12c1.91,1.07,5,3.76,6.41,16.71.89,8,1.5,13.43,0,20.89-2.81,14-10.56,22.91-14.49,27.3a63,63,0,0,1-21.72,15.88c-4.61,2-7.9,2.61-14.49,3.9-5.44,1.06-7.56,1-9.47,0C679.59,566.08,678.3,562.71,677.52,559.32Z"/><path class="cls-10" d="M690,539.29s.89,6.64,2.93,5.44-2.19-5.91-2.19-5.91S690.54,538.51,690,539.29Z"/><path class="cls-10" d="M698.53,531.3s-1.36.79-1.78,3.5.31,3.08.31,3.08,1.52.32,1.83-2.24A9.81,9.81,0,0,0,698.53,531.3Z"/><path class="cls-10" d="M686,533.26a7.78,7.78,0,0,0-1-2c-.32-.42-1.17-1.2-1.58-.47a2.07,2.07,0,0,0,.26,2c.15.26.33.5.5.74s.22.52.35.78c.32.66.72,1.51,1.49,1.73a.3.3,0,0,0,.37-.29A5.62,5.62,0,0,0,686,533.26Z"/><path class="cls-10" d="M700.81,518.37a1.35,1.35,0,0,0-.52-.08.3.3,0,0,0-.23,0,.1.1,0,0,0-.07,0,2.71,2.71,0,0,0-1.12.57,7.15,7.15,0,0,0-2,2.3,3.47,3.47,0,0,0-.34.42,1.56,1.56,0,0,0,0,1.86.92.92,0,0,0,1,.08,9.93,9.93,0,0,0,1-.5,10.36,10.36,0,0,0,1.88-1.34,3.3,3.3,0,0,0,1.21-1.77A1.39,1.39,0,0,0,700.81,518.37Z"/><path class="cls-10" d="M705.53,525.17c-.14.28.24.73.62,1.15.93,1,3.31,3.15,5,2.3a1.67,1.67,0,0,0,1-1.43c-.1-.71-1.21-1.07-2.82-1.56C708.56,525.38,705.84,524.55,705.53,525.17Z"/><path class="cls-10" d="M688.26,522.22a5.35,5.35,0,0,0-2.3,2.36c-.14.35-.44,1.06-.11,1.5a1.34,1.34,0,0,0,1.12.35c1.91-.11,3.12-2.75,3.51-4.08.22-.74.16-1,0-1.07C690.14,521,689,521.72,688.26,522.22Z"/><path class="cls-10" d="M681.19,522.25c-.33.47.33,1.38.42,1.5s.94,1.27,2,1c.68-.14,1.33-.77,1.29-1.36-.06-1-2.07-1.32-2.29-1.35C682.16,522,681.45,521.88,681.19,522.25Z"/><path class="cls-10" d="M687.39,512.78a2.06,2.06,0,0,0-.6,2.16c.17.7.71,1.57,1.5,1.67a1.1,1.1,0,0,0,.87-.24c.15-.15.28-.41.14-1.5-.17-1.3-.25-2-.73-2.19A1.25,1.25,0,0,0,687.39,512.78Z"/><path class="cls-10" d="M698,509.37a3.25,3.25,0,0,0-1.15,2.05c0,.57.15,1.47.73,1.67a1.19,1.19,0,0,0,1-.21c.48-.31.66-.81,1-2.29.53-2.29.42-2.43.34-2.48C699.43,507.82,698.11,509.22,698,509.37Z"/><path class="cls-10" d="M696.47,503.73c-1.58.69-3.3,2-3.06,2.64.13.35.84.44,1.32.39.94-.12,1.31-.82,2.4-1.78,1.54-1.34,2.7-1.61,2.62-1.85S698,503.07,696.47,503.73Z"/><path class="cls-10" d="M709.11,510.13c-.67.09-1.1,1-1.91,2.89-.6,1.36-.92,2.12-.66,2.34s1.58-.67,2-1c1.08-.85,2.48-2,2.2-3A1.68,1.68,0,0,0,709.11,510.13Z"/><path class="cls-10" d="M715.94,512c-.58.1-.94,2.31-.28,4.18.3.86,1.05,2.29,1.77,2.2.56-.08.93-1,1-1.71.14-1.12-.45-2-1.53-3.59C716.41,512.35,716.15,512,715.94,512Z"/><path class="cls-10" d="M709.77,505.54c.11.36,1,.16,3.07.38s2.46.53,3,.1a1.62,1.62,0,0,0,.42-1.88c-.62-1.11-3.33-.87-5.08.07C710.62,504.51,709.65,505.15,709.77,505.54Z"/><path class="cls-10" d="M722.45,497.84c-.5.42-.43,1.35-.25,3.21.14,1.38.2,2.07.46,2.12.48.09,1.21-1.92,1.53-3.2.24-1,.41-1.72,0-2.13A1.42,1.42,0,0,0,722.45,497.84Z"/><path class="cls-10" d="M707.79,499c-.39.45.77,2.49,2.51,3.16.24.1,1.06.42,1.39.07s.06-.94,0-1.11c-.55-1.55-2.58-2-2.93-2.09C708.21,498.94,707.92,498.87,707.79,499Z"/><path class="cls-10" d="M713.19,492.58c-1.31.75-2.17,2.37-1.81,2.79s2.22-.34,3.3-1.57c.13-.14,1-1.12.73-1.53S714,492.12,713.19,492.58Z"/><path class="cls-10" d="M702.71,496.62c0,.58.79.94,1.32,1.19,1,.47,2.51.76,2.71.35s-1.13-1.48-1.39-1.68c-.64-.48-1.32-1-2-.76A1,1,0,0,0,702.71,496.62Z"/></g></g></g></svg>