<svg xmlns="http://www.w3.org/2000/svg" viewBox="0 0 550.12 172.36"><defs><style>.cls-1{fill:#474747;}.cls-2{fill:#fff;}.cls-3{fill:#bababa;}.cls-4{font-size:50px;font-family:NEXONLv2GothicOTFBold-KSCpc-EUC-H, NEXON Lv2 Gothic OTF;}</style></defs><g id="Layer_2" data-name="Layer 2"><g id="Layer_1-2" data-name="Layer 1"><polygon class="cls-1" points="41.34 172.35 0 94.17 41.34 15.99 505.28 15.99 550.12 94.17 505.28 172.35 41.34 172.35"/><polygon points="41.34 156.36 0 78.18 41.34 0 505.28 0 550.12 78.18 505.28 156.36 41.34 156.36"/><polygon class="cls-2" points="44.65 147.2 8.15 78.18 44.65 9.16 502.14 9.16 541.72 78.18 502.14 147.2 44.65 147.2"/><polygon class="cls-3" points="541.72 78.18 502.14 147.21 44.65 147.21 8.15 78.18 541.72 78.18"/><polygon points="526.68 76.93 496.55 129.47 475.41 129.47 505.55 76.93 475.41 24.37 496.55 24.37 526.68 76.93"/><text class="cls-4" transform="translate(112.9 93.88)">이벤트 보러가기</text></g></g></svg>